<svg width="32" height="32" viewBox="0 0 32 32" fill="none" xmlns="http://www.w3.org/2000/svg">
<path d="M19.8196 8.00206C20.1727 8.00154 20.5148 8.09434 20.7867 8.26434C20.9397 8.36007 21.0662 8.47764 21.1589 8.61031C21.2516 8.74299 21.3087 8.88816 21.3269 9.03751C21.3452 9.18687 21.3242 9.33748 21.2652 9.48071C21.2062 9.62394 21.1104 9.75697 20.9831 9.8722L14.2137 15.9844L20.7414 22.1079C20.8669 22.2246 20.9606 22.3588 21.0172 22.5028C21.0737 22.6469 21.092 22.798 21.0709 22.9474C21.0499 23.0968 20.9899 23.2416 20.8944 23.3735C20.799 23.5054 20.6699 23.6217 20.5147 23.7158C20.3584 23.8196 20.1753 23.8979 19.9769 23.9458C19.7786 23.9937 19.5693 24.0101 19.3621 23.994C19.155 23.978 18.9545 23.9298 18.7732 23.8524C18.5919 23.7751 18.4337 23.6704 18.3086 23.5447L11.0104 16.7028C10.7881 16.4987 10.6666 16.2428 10.6666 15.9787C10.6666 15.7145 10.7881 15.4586 11.0104 15.2546L18.5655 8.41258C18.7171 8.27458 18.9096 8.1655 19.1275 8.09417C19.3454 8.02284 19.5825 7.99129 19.8196 8.00206Z" fill="white"/>
</svg>
