<svg width="24" height="24" viewBox="0 0 24 24" fill="none" xmlns="http://www.w3.org/2000/svg">
<path d="M14.8647 6.00155C15.1295 6.00116 15.3861 6.07075 15.59 6.19825C15.7048 6.27005 15.7996 6.35823 15.8692 6.45774C15.9387 6.55724 15.9815 6.66612 15.9952 6.77814C16.0089 6.89015 15.9932 7.00311 15.9489 7.11053C15.9047 7.21795 15.8328 7.31773 15.7374 7.40415L10.6603 11.9883L15.556 16.5809C15.6502 16.6684 15.7205 16.7691 15.7629 16.8771C15.8053 16.9852 15.819 17.0985 15.8032 17.2106C15.7874 17.3226 15.7424 17.4312 15.6708 17.5301C15.5992 17.629 15.5025 17.7163 15.386 17.7868C15.2688 17.8647 15.1315 17.9234 14.9827 17.9593C14.834 17.9952 14.677 18.0076 14.5216 17.9955C14.3663 17.9835 14.2159 17.9473 14.0799 17.8893C13.9439 17.8313 13.8253 17.7528 13.7315 17.6586L8.2578 12.5271C8.09112 12.374 8 12.1821 8 11.984C8 11.7859 8.09112 11.5939 8.2578 11.4409L13.9241 6.30944C14.0378 6.20594 14.1822 6.12412 14.3457 6.07063C14.5091 6.01713 14.6869 5.99347 14.8647 6.00155Z" fill="#170E30"/>
</svg>
