<svg width="32" height="32" viewBox="0 0 32 32" fill="none" xmlns="http://www.w3.org/2000/svg">
<path d="M9.25 4C9.44891 4 9.63968 4.07902 9.78033 4.21967C9.92098 4.36032 10 4.55109 10 4.75V5.5H22V4.75C22 4.55109 22.079 4.36032 22.2197 4.21967C22.3603 4.07902 22.5511 4 22.75 4C22.9489 4 23.1397 4.07902 23.2803 4.21967C23.421 4.36032 23.5 4.55109 23.5 4.75V5.5H25C25.7956 5.5 26.5587 5.81607 27.1213 6.37868C27.6839 6.94129 28 7.70435 28 8.5V25C28 25.7956 27.6839 26.5587 27.1213 27.1213C26.5587 27.6839 25.7956 28 25 28H7C6.20435 28 5.44129 27.6839 4.87868 27.1213C4.31607 26.5587 4 25.7956 4 25V11.5H28V10H4V8.5C4 7.70435 4.31607 6.94129 4.87868 6.37868C5.44129 5.81607 6.20435 5.5 7 5.5H8.5V4.75C8.5 4.55109 8.57902 4.36032 8.71967 4.21967C8.86032 4.07902 9.05109 4 9.25 4V4Z" fill="white"/>
</svg>
