<svg width="24" height="24" viewBox="0 0 24 24" fill="none" xmlns="http://www.w3.org/2000/svg">
<path fill-rule="evenodd" clip-rule="evenodd" d="M17.414 6H20C21.103 6 22 6.897 22 8V19C22 20.103 21.103 21 20 21H4C2.897 21 2 20.103 2 19V8C2 6.897 2.897 6 4 6H6.586L9.293 3.293C9.38571 3.19996 9.4959 3.12617 9.61724 3.07589C9.73857 3.0256 9.86866 2.99981 10 3H14C14.1313 2.99981 14.2614 3.0256 14.3828 3.07589C14.5041 3.12617 14.6143 3.19996 14.707 3.293L17.414 6ZM7 13C7 15.71 9.29 18 12 18C14.71 18 17 15.71 17 13C17 10.29 14.71 8 12 8C9.29 8 7 10.29 7 13ZM9 13C9 11.374 10.374 10 12 10C13.626 10 15 11.374 15 13C15 14.626 13.626 16 12 16C10.374 16 9 14.626 9 13Z" fill="#170E30"/>
</svg>
