<svg width="24" height="24" viewBox="0 0 24 24" fill="none" xmlns="http://www.w3.org/2000/svg">
<path d="M18.0738 5.45279C18.3822 5.15916 18.7926 4.99683 19.2185 5.00005C19.6443 5.00327 20.0522 5.17179 20.3562 5.47006C20.6601 5.76832 20.8363 6.173 20.8476 6.59869C20.8588 7.02439 20.7043 7.43781 20.4165 7.75172L11.6806 18.6771C11.5304 18.8389 11.349 18.9688 11.1475 19.0589C10.946 19.149 10.7283 19.1976 10.5076 19.2017C10.2868 19.2058 10.0675 19.1653 9.86278 19.0827C9.65804 19.0001 9.47206 18.877 9.31595 18.7209L3.52264 12.9276C3.36131 12.7773 3.23191 12.596 3.14216 12.3946C3.05241 12.1931 3.00415 11.9757 3.00026 11.7552C2.99637 11.5347 3.03692 11.3157 3.11951 11.1112C3.2021 10.9068 3.32503 10.721 3.48096 10.5651C3.63689 10.4092 3.82263 10.2862 4.0271 10.2036C4.23157 10.1211 4.45058 10.0805 4.67106 10.0844C4.89155 10.0883 5.10899 10.1365 5.31042 10.2263C5.51185 10.316 5.69314 10.4454 5.84347 10.6068L10.4282 15.1893L18.0322 5.50096C18.0459 5.4841 18.0605 5.46802 18.076 5.45279H18.0738Z" fill="white"/>
</svg>
