<svg width="32" height="32" viewBox="0 0 32 32" fill="none" xmlns="http://www.w3.org/2000/svg">
<path d="M16.0621 2.66666L16.0776 18.2954C15.1659 17.7917 14.1152 17.4806 12.9872 17.4806C12.1639 17.463 11.3452 17.6032 10.5792 17.8931C9.81319 18.1829 9.11531 18.6166 8.52653 19.1686C7.93775 19.7206 7.46993 20.3798 7.15054 21.1075C6.83115 21.8352 6.66663 22.6167 6.66663 23.4062C6.66663 24.1958 6.83115 24.9773 7.15054 25.705C7.46993 26.4327 7.93775 27.0919 8.52653 27.6439C9.11531 28.1959 9.81319 28.6296 10.5792 28.9194C11.3452 29.2093 12.1639 29.3495 12.9872 29.3318C16.4175 29.3318 19.1525 26.6801 19.1525 23.4062V8.59225H25.3333V2.66666H16.0621ZM12.9872 26.369C11.2875 26.369 9.89678 25.0358 9.89678 23.4062C9.89678 21.7767 11.2875 20.4434 12.9872 20.4434C14.6869 20.4434 16.0776 21.7767 16.0776 23.4062C16.0776 25.0358 14.6869 26.369 12.9872 26.369Z" fill="white"/>
</svg>
