<svg width="24" height="24" viewBox="0 0 24 24" fill="none" xmlns="http://www.w3.org/2000/svg">
<path d="M12.0466 2L12.0582 13.7216C11.3745 13.3438 10.5864 13.1105 9.74041 13.1105C9.12293 13.0973 8.50892 13.2024 7.93442 13.4198C7.35992 13.6372 6.83651 13.9624 6.39493 14.3764C5.95334 14.7904 5.60248 15.2848 5.36294 15.8306C5.12339 16.3764 5 16.9626 5 17.5547C5 18.1468 5.12339 18.733 5.36294 19.2788C5.60248 19.8245 5.95334 20.319 6.39493 20.7329C6.83651 21.1469 7.35992 21.4722 7.93442 21.6896C8.50892 21.907 9.12293 22.0121 9.74041 21.9989C12.3132 21.9989 14.3644 20.0101 14.3644 17.5547V6.4442H19V2H12.0466ZM9.74041 19.7768C8.46562 19.7768 7.42262 18.7768 7.42262 17.5547C7.42262 16.3325 8.46562 15.3326 9.74041 15.3326C11.0152 15.3326 12.0582 16.3325 12.0582 17.5547C12.0582 18.7768 11.0152 19.7768 9.74041 19.7768Z" fill="#170E30"/>
</svg>
