<svg width="24" height="24" viewBox="0 0 24 24" fill="none" xmlns="http://www.w3.org/2000/svg">
<path d="M6.46456 12.6185C5.48339 12.8523 4.60906 13.407 3.98111 14.1941C3.35316 14.9812 3.00779 15.9554 3.00012 16.9611V20.4599C2.99858 20.5312 3.01154 20.6021 3.03822 20.6683C3.0649 20.7345 3.10474 20.7947 3.15535 20.8451C3.20595 20.8956 3.26628 20.9353 3.3327 20.9619C3.39911 20.9885 3.47024 21.0014 3.54179 20.9999L7.19807 20.9324C8.01492 20.9337 8.81497 20.7011 9.50313 20.2624C10.1913 19.8236 10.7386 19.1971 11.08 18.4573C11.4304 17.7601 11.5744 16.9779 11.4951 16.202C11.4158 15.4262 11.1166 14.689 10.6325 14.0765C10.1483 13.464 9.49923 13.0016 8.76113 12.7434C8.02304 12.4852 7.22645 12.4419 6.46456 12.6185ZM20.1643 3.5171C19.6908 3.14484 19.0947 2.96266 18.4933 3.00638C17.8919 3.0501 17.3286 3.31656 16.9143 3.75335L9.71458 10.9647C9.61672 11.0637 9.56186 11.197 9.56186 11.336C9.56186 11.4749 9.61672 11.6083 9.71458 11.7072L12.2537 14.2498C12.3529 14.3473 12.4867 14.402 12.6261 14.402C12.7654 14.402 12.8992 14.3473 12.9985 14.2498L20.3223 6.9709C20.5393 6.75361 20.7109 6.49554 20.8271 6.21166C20.9433 5.92778 21.0019 5.62373 20.9994 5.31713C21.0074 4.97343 20.9363 4.63248 20.7915 4.32044C20.6468 4.00841 20.4322 3.7336 20.1643 3.5171Z" fill="#170E30"/>
</svg>
