<svg width="32" height="32" viewBox="0 0 32 32" fill="none" xmlns="http://www.w3.org/2000/svg">
<path d="M8.61941 16.8247C7.31119 17.1364 6.14541 17.876 5.30815 18.9255C4.47088 19.975 4.01039 21.2738 4.00016 22.6147V27.2798C3.99811 27.3749 4.01539 27.4695 4.05096 27.5578C4.08653 27.646 4.13965 27.7262 4.20713 27.7935C4.27461 27.8608 4.35504 27.9137 4.4436 27.9492C4.53215 27.9847 4.62698 28.0019 4.72239 27.9998L9.59743 27.9098C10.6866 27.9116 11.7533 27.6015 12.6708 27.0165C13.5884 26.4315 14.3181 25.5962 14.7734 24.6098C15.2405 23.6802 15.4325 22.6371 15.3268 21.6027C15.2211 20.5683 14.8222 19.5853 14.1766 18.7687C13.5311 17.952 12.6656 17.3355 11.6815 16.9912C10.6974 16.647 9.63527 16.5892 8.61941 16.8247ZM26.8858 4.68947C26.2544 4.19312 25.4596 3.95021 24.6577 4.0085C23.8558 4.0668 23.1048 4.42207 22.5524 5.00447L12.9528 14.6196C12.8223 14.7515 12.7491 14.9294 12.7491 15.1146C12.7491 15.2999 12.8223 15.4777 12.9528 15.6096L16.3382 18.9997C16.4705 19.1298 16.6489 19.2027 16.8348 19.2027C17.0206 19.2027 17.199 19.1298 17.3313 18.9997L27.0964 9.29454C27.3857 9.00481 27.6145 8.66072 27.7695 8.28222C27.9244 7.90371 28.0025 7.49831 27.9992 7.0895C28.0099 6.63124 27.915 6.17664 27.722 5.76059C27.529 5.34455 27.2429 4.97813 26.8858 4.68947Z" fill="white"/>
</svg>
