<svg width="24" height="24" viewBox="0 0 24 24" fill="none" xmlns="http://www.w3.org/2000/svg">
<path fill-rule="evenodd" clip-rule="evenodd" d="M11.9724 7.22187C13.2247 7.2019 14.2273 6.24069 14.2117 5.07494C14.1961 3.90919 13.1682 2.98035 11.9159 3.00032C10.6636 3.02028 9.66102 3.9815 9.67661 5.14725C9.69221 6.313 10.7201 7.24184 11.9724 7.22187ZM12.1538 20.8498C16.1013 20.7867 19.2664 18.1059 19.2231 14.8621C19.1799 11.6182 15.9447 9.03978 11.9972 9.10291C8.04966 9.16604 4.8846 11.8469 4.92784 15.0907C4.97108 18.3345 8.20625 20.913 12.1538 20.8498ZM20.9437 7.07808C20.9592 8.24383 19.9566 9.2051 18.7043 9.22512C17.452 9.24515 16.4242 8.31636 16.4086 7.15061C16.3931 5.98486 17.3957 5.02359 18.648 5.00357C19.9003 4.98354 20.9282 5.91233 20.9437 7.07808ZM5.2961 9.44066C6.54842 9.42078 7.55092 8.45963 7.53525 7.29388C7.51958 6.12813 6.49166 5.19923 5.23934 5.21911C3.98701 5.239 2.98451 6.20014 3.00018 7.36589C3.01586 8.53164 4.04377 9.46054 5.2961 9.44066Z" fill="#170E30"/>
</svg>
