<svg width="32" height="32" viewBox="0 0 32 32" fill="none" xmlns="http://www.w3.org/2000/svg">
<path fill-rule="evenodd" clip-rule="evenodd" d="M15.9632 9.62917C17.6329 9.60254 18.9697 8.32092 18.9489 6.76659C18.9281 5.21226 17.5576 3.9738 15.8879 4.00043C14.2181 4.02705 12.8814 5.30867 12.9022 6.86301C12.9229 8.41734 14.2934 9.65579 15.9632 9.62917ZM16.205 27.7998C21.4684 27.7156 25.6885 24.1412 25.6309 19.8161C25.5732 15.491 21.2596 12.053 15.9963 12.1372C10.7329 12.2214 6.5128 15.7958 6.57046 20.1209C6.62811 24.446 10.9417 27.884 16.205 27.7998ZM27.9249 9.43745C27.9456 10.9918 26.6088 12.2735 24.9391 12.3002C23.2693 12.3269 21.8989 11.0885 21.8782 9.53415C21.8575 7.97982 23.1943 6.69813 24.864 6.67143C26.5338 6.64473 27.9042 7.88312 27.9249 9.43745ZM7.06146 12.5876C8.73123 12.561 10.0679 11.2795 10.047 9.72518C10.0261 8.17085 8.65555 6.93231 6.98578 6.95882C5.31602 6.98534 3.97934 8.26686 4.00024 9.82119C4.02114 11.3755 5.39169 12.6141 7.06146 12.5876Z" fill="white"/>
</svg>
