<svg width="24" height="24" viewBox="0 0 24 24" fill="none" xmlns="http://www.w3.org/2000/svg">
<path fill-rule="evenodd" clip-rule="evenodd" d="M2.66666 5.33333C2.66666 4.97971 2.80713 4.64057 3.05718 4.39052C3.30723 4.14048 3.64637 4 3.99999 4H20C20.3536 4 20.6928 4.14048 20.9428 4.39052C21.1928 4.64057 21.3333 4.97971 21.3333 5.33333C21.3333 5.68696 21.1928 6.02609 20.9428 6.27614C20.6928 6.52619 20.3536 6.66667 20 6.66667H3.99999C3.64637 6.66667 3.30723 6.52619 3.05718 6.27614C2.80713 6.02609 2.66666 5.68696 2.66666 5.33333Z" fill="#170E30"/>
<path fill-rule="evenodd" clip-rule="evenodd" d="M2.66666 12C2.66666 11.6464 2.80713 11.3072 3.05718 11.0572C3.30723 10.8071 3.64637 10.6667 3.99999 10.6667H20C20.3536 10.6667 20.6928 10.8071 20.9428 11.0572C21.1928 11.3072 21.3333 11.6464 21.3333 12C21.3333 12.3536 21.1928 12.6928 20.9428 12.9428C20.6928 13.1928 20.3536 13.3333 20 13.3333H3.99999C3.64637 13.3333 3.30723 13.1928 3.05718 12.9428C2.80713 12.6928 2.66666 12.3536 2.66666 12Z" fill="#170E30"/>
<path fill-rule="evenodd" clip-rule="evenodd" d="M2.66666 18.6667C2.66666 18.3131 2.80713 17.9739 3.05718 17.7239C3.30723 17.4738 3.64637 17.3333 3.99999 17.3333H20C20.3536 17.3333 20.6928 17.4738 20.9428 17.7239C21.1928 17.9739 21.3333 18.3131 21.3333 18.6667C21.3333 19.0203 21.1928 19.3594 20.9428 19.6095C20.6928 19.8595 20.3536 20 20 20H3.99999C3.64637 20 3.30723 19.8595 3.05718 19.6095C2.80713 19.3594 2.66666 19.0203 2.66666 18.6667Z" fill="#170E30"/>
</svg>
