<svg width="32" height="32" viewBox="0 0 32 32" fill="none" xmlns="http://www.w3.org/2000/svg">
<path fill-rule="evenodd" clip-rule="evenodd" d="M3.55554 7.11112C3.55554 6.63963 3.74284 6.18744 4.07624 5.85404C4.40964 5.52064 4.86182 5.33334 5.33332 5.33334H26.6667C27.1381 5.33334 27.5903 5.52064 27.9237 5.85404C28.2571 6.18744 28.4444 6.63963 28.4444 7.11112C28.4444 7.58262 28.2571 8.0348 27.9237 8.3682C27.5903 8.7016 27.1381 8.8889 26.6667 8.8889H5.33332C4.86182 8.8889 4.40964 8.7016 4.07624 8.3682C3.74284 8.0348 3.55554 7.58262 3.55554 7.11112Z" fill="white"/>
<path fill-rule="evenodd" clip-rule="evenodd" d="M3.55554 16C3.55554 15.5285 3.74284 15.0763 4.07624 14.7429C4.40964 14.4095 4.86182 14.2222 5.33332 14.2222H26.6667C27.1381 14.2222 27.5903 14.4095 27.9237 14.7429C28.2571 15.0763 28.4444 15.5285 28.4444 16C28.4444 16.4715 28.2571 16.9237 27.9237 17.2571C27.5903 17.5905 27.1381 17.7778 26.6667 17.7778H5.33332C4.86182 17.7778 4.40964 17.5905 4.07624 17.2571C3.74284 16.9237 3.55554 16.4715 3.55554 16Z" fill="white"/>
<path fill-rule="evenodd" clip-rule="evenodd" d="M3.55554 24.8889C3.55554 24.4174 3.74284 23.9652 4.07624 23.6318C4.40964 23.2984 4.86182 23.1111 5.33332 23.1111H26.6667C27.1381 23.1111 27.5903 23.2984 27.9237 23.6318C28.2571 23.9652 28.4444 24.4174 28.4444 24.8889C28.4444 25.3604 28.2571 25.8126 27.9237 26.146C27.5903 26.4794 27.1381 26.6667 26.6667 26.6667H5.33332C4.86182 26.6667 4.40964 26.4794 4.07624 26.146C3.74284 25.8126 3.55554 25.3604 3.55554 24.8889Z" fill="white"/>
</svg>
