<svg width="24" height="24" viewBox="0 0 24 24" fill="none" xmlns="http://www.w3.org/2000/svg">
<path d="M15.2112 15.6069C19.8815 11.5868 23.5001 6.30529 21.3782 3.98876C20.7052 3.25442 19.7654 2.9139 18.7564 3.01853C17.9093 3.10835 17.0388 3.51401 16.1611 4.19505C14.7815 3.50216 13.2415 3.16392 11.6885 3.21265C10.1355 3.26138 8.62141 3.69546 7.29086 4.47339C6.25652 5.06706 5.35408 5.85393 4.63591 6.78836C3.91773 7.72278 3.39812 8.78616 3.10722 9.91679C2.65383 11.6584 2.76257 13.4929 3.41878 15.1727C2.33443 16.36 1.32747 18.8019 2.58083 20.1699C3.10722 20.7434 3.86066 21 4.76683 21C7.523 21 11.6985 18.6321 15.2112 15.6069ZM18.9774 4.97973C19.3419 4.94617 19.6208 5.0429 19.854 5.29854C20.0892 5.55615 20.0261 6.23225 19.5974 7.20249C19.137 6.52313 18.5831 5.90781 17.9511 5.37355C18.3899 5.11495 18.7412 5.00539 18.9774 4.97973ZM4.48785 17.123C4.94059 17.7595 5.47731 18.3359 6.08434 18.8374C5.04072 19.1365 4.3392 19.1168 4.104 18.8582C3.88306 18.6183 4.10604 17.8031 4.48785 17.123ZM21.0941 11.3302C19.8571 13.1039 18.1353 14.9535 16.2293 16.594C14.2602 18.2906 12.0895 19.7603 10.0694 20.7414C10.6962 20.8752 11.3357 20.9453 11.9775 20.9506C13.6333 20.9489 15.2577 20.5116 16.6773 19.6853C18.1521 18.8389 19.3496 17.6051 20.1312 16.1265C20.9128 14.6479 21.2467 12.985 21.0941 11.3302Z" fill="white"/>
</svg>
