<svg width="24" height="24" viewBox="0 0 24 24" fill="none" xmlns="http://www.w3.org/2000/svg">
<path d="M14.6316 5V7.14286H2V5H14.6316ZM14.6316 9.28571V11.4286H2V9.28571H14.6316ZM2 15.7143V13.5714H10.4211V15.7143H2ZM16.7368 5H22V7.14286H18.8421V16.7857C18.8421 17.6382 18.5094 18.4558 17.9172 19.0586C17.325 19.6614 16.5217 20 15.6842 20C14.8467 20 14.0435 19.6614 13.4512 19.0586C12.859 18.4558 12.5263 17.6382 12.5263 16.7857C12.5263 15.9332 12.859 15.1157 13.4512 14.5129C14.0435 13.9101 14.8467 13.5714 15.6842 13.5714C16.0526 13.5714 16.4105 13.6464 16.7368 13.7643V5ZM15.6842 15.7143C15.405 15.7143 15.1373 15.8272 14.9399 16.0281C14.7425 16.229 14.6316 16.5016 14.6316 16.7857C14.6316 17.0699 14.7425 17.3424 14.9399 17.5433C15.1373 17.7443 15.405 17.8571 15.6842 17.8571C15.9634 17.8571 16.2311 17.7443 16.4285 17.5433C16.6259 17.3424 16.7368 17.0699 16.7368 16.7857C16.7368 16.5016 16.6259 16.229 16.4285 16.0281C16.2311 15.8272 15.9634 15.7143 15.6842 15.7143Z" fill="#170E30"/>
</svg>
