<svg width="32" height="32" viewBox="0 0 32 32" fill="none" xmlns="http://www.w3.org/2000/svg">
<path d="M19.5088 6.66666V9.52381H2.66669V6.66666H19.5088ZM19.5088 12.3809V15.2381H2.66669V12.3809H19.5088ZM2.66669 20.9524V18.0952H13.8948V20.9524H2.66669ZM22.3158 6.66666H29.3334V9.52381H25.1228V22.3809C25.1228 23.5176 24.6792 24.6077 23.8896 25.4114C23.1 26.2151 22.029 26.6667 20.9123 26.6667C19.7956 26.6667 18.7246 26.2151 17.935 25.4114C17.1454 24.6077 16.7018 23.5176 16.7018 22.3809C16.7018 21.2443 17.1454 20.1542 17.935 19.3505C18.7246 18.5468 19.7956 18.0952 20.9123 18.0952C21.4035 18.0952 21.8807 18.1952 22.3158 18.3524V6.66666ZM20.9123 20.9524C20.5401 20.9524 20.1831 21.1029 19.9199 21.3708C19.6567 21.6387 19.5088 22.0021 19.5088 22.3809C19.5088 22.7598 19.6567 23.1232 19.9199 23.3911C20.1831 23.659 20.5401 23.8095 20.9123 23.8095C21.2845 23.8095 21.6415 23.659 21.9047 23.3911C22.1679 23.1232 22.3158 22.7598 22.3158 22.3809C22.3158 22.0021 22.1679 21.6387 21.9047 21.3708C21.6415 21.1029 21.2845 20.9524 20.9123 20.9524Z" fill="white"/>
</svg>
