<svg width="24" height="24" viewBox="0 0 24 24" fill="none" xmlns="http://www.w3.org/2000/svg">
<path fill-rule="evenodd" clip-rule="evenodd" d="M16.3588 12.3765C16.3588 12.3765 17.9639 14.8069 19.5442 15.5817C20.7699 16.1772 19.4095 19.7728 18.7547 21.3223C18.5681 21.7597 18.3135 21.7473 18.0479 21.3741C17.5438 20.6661 16.5405 19.2057 14.9564 19.2057H9.08239C7.49712 19.2057 6.49382 20.6661 5.99093 21.3741C5.72527 21.7473 5.46827 21.7597 5.28417 21.3223C4.6293 19.7716 3.26891 16.1772 4.49338 15.5817C6.07495 14.8069 7.67999 12.3765 7.67999 12.3765H16.3588Z" fill="white"/>
<path fill-rule="evenodd" clip-rule="evenodd" d="M16.5677 13.1439C16.1204 9.31844 14.6007 3.2566 12.7176 2.04201C12.4966 2.01502 12.2742 2.00099 12.0516 2C11.8243 2 11.6043 2.01606 11.3832 2.04201C9.50011 3.2566 7.97909 9.31968 7.53304 13.1439C7.44655 13.8902 7.3996 14.5561 7.3996 15.0776C7.3996 16.9618 8.0038 18.3457 8.95645 19.2255H15.1468C16.0994 18.3445 16.7036 16.9618 16.7036 15.0776C16.6939 14.431 16.6485 13.7854 16.5677 13.1439ZM12.0059 6.88926C12.2494 6.88934 12.4904 6.93738 12.7154 7.03062C12.9403 7.12387 13.1446 7.26051 13.3167 7.43272C13.4888 7.60494 13.6253 7.80937 13.7184 8.03434C13.8115 8.25931 13.8594 8.50042 13.8593 8.74389C13.8592 8.98736 13.8112 9.22844 13.7179 9.45334C13.6247 9.67825 13.4881 9.88259 13.3158 10.0547C13.1436 10.2268 12.9392 10.3633 12.7142 10.4564C12.4892 10.5495 12.2481 10.5974 12.0047 10.5973C11.513 10.5971 11.0414 10.4016 10.6939 10.0538C10.3463 9.70601 10.1511 9.23437 10.1513 8.74266C10.1514 8.25094 10.3469 7.77943 10.6947 7.43185C11.0425 7.08427 11.5142 6.8891 12.0059 6.88926Z" fill="white"/>
</svg>
