<svg width="24" height="24" viewBox="0 0 24 24" fill="none" xmlns="http://www.w3.org/2000/svg">
<path d="M19.4286 4.12501H15.1429L14.8071 3.46758C14.736 3.32703 14.6265 3.20881 14.4908 3.1262C14.3552 3.0436 14.1988 2.99989 14.0393 3.00001H9.95714C9.79799 2.9994 9.64189 3.04295 9.50672 3.12564C9.37154 3.20834 9.26277 3.32684 9.19286 3.46758L8.85714 4.12501H4.57143C4.41988 4.12501 4.27453 4.18427 4.16737 4.28976C4.0602 4.39525 4 4.53832 4 4.68751V5.81251C4 5.96169 4.0602 6.10476 4.16737 6.21025C4.27453 6.31574 4.41988 6.37501 4.57143 6.37501H19.4286C19.5801 6.37501 19.7255 6.31574 19.8326 6.21025C19.9398 6.10476 20 5.96169 20 5.81251V4.68751C20 4.53832 19.9398 4.39525 19.8326 4.28976C19.7255 4.18427 19.5801 4.12501 19.4286 4.12501ZM5.9 19.418C5.92725 19.8464 6.11934 20.2485 6.43716 20.5424C6.75498 20.8363 7.17464 20.9999 7.61071 21H16.3893C16.8254 20.9999 17.245 20.8363 17.5628 20.5424C17.8807 20.2485 18.0727 19.8464 18.1 19.418L18.8571 7.5H5.14286L5.9 19.418Z" fill="#170E30"/>
</svg>
